<svg width="17" height="18" viewBox="0 0 17 18" fill="none" xmlns="http://www.w3.org/2000/svg">
<path d="M3.84356 5.37034C3.93115 4.67758 4.83148 3.73604 5.546 3.84051L5.54486 3.83937C6.24022 3.97151 6.79067 5.16834 7.10106 5.70649C7.32098 6.09696 7.17817 6.49256 6.97304 6.6595C6.69631 6.88253 6.26358 7.19029 6.35437 7.49929C6.51579 8.0486 8.43219 9.96501 9.37475 10.5098C9.73151 10.716 9.99022 10.1721 10.2111 9.89349C10.3717 9.67916 10.7676 9.55106 11.1572 9.76263C11.739 10.1015 12.2871 10.4952 12.7939 10.9385C13.047 11.1501 13.1064 11.4628 12.9311 11.7933C12.6221 12.3753 11.7286 13.1429 11.08 12.9869C9.94722 12.7145 5.36595 10.9385 3.8944 5.79339C3.81165 5.54998 3.83248 5.45797 3.84356 5.37034Z" fill="#999999"/>
<path fill-rule="evenodd" clip-rule="evenodd" d="M8.43217 16.8643C7.4942 16.8643 6.97524 16.7637 6.13249 16.4811L4.51844 17.2881C3.49906 17.7978 2.29968 17.0565 2.29968 15.9168V14.1814C0.648932 12.6421 0 10.8673 0 8.43217C0 3.77521 3.77521 0 8.43217 0C13.0891 0 16.8643 3.77521 16.8643 8.43217C16.8643 13.0891 13.0891 16.8643 8.43217 16.8643ZM3.8328 13.5147L3.34523 13.0601C2.06271 11.8642 1.53312 10.5273 1.53312 8.43217C1.53312 4.62193 4.62193 1.53312 8.43217 1.53312C12.2424 1.53312 15.3312 4.62193 15.3312 8.43217C15.3312 12.2424 12.2424 15.3312 8.43217 15.3312C7.67657 15.3312 7.32219 15.263 6.61998 15.0275L6.01633 14.8251L3.8328 15.9168V13.5147Z" fill="#999999"/>
</svg>
